<svg width="60" height="60" viewBox="0 0 60 60" fill="none" xmlns="http://www.w3.org/2000/svg">
<rect x="1" y="1" width="58" height="58" stroke="#858585" stroke-opacity="0.3" stroke-width="2"/>
<path d="M40.2825 39.2175L35.4075 34.3425H35.355C36.8576 32.5708 37.6169 30.2867 37.4741 27.968C37.3314 25.6494 36.2975 23.4757 34.5889 21.9017C32.8803 20.3278 30.6293 19.4755 28.3067 19.5231C25.9841 19.5707 23.7699 20.5146 22.1272 22.1572C20.4845 23.7999 19.5407 26.0141 19.493 28.3367C19.4454 30.6593 20.2977 32.9103 21.8717 34.6189C23.4457 36.3276 25.6193 37.3614 27.938 37.5042C30.2567 37.6469 32.5408 36.8876 34.3125 35.385C34.3125 35.385 34.3125 35.4225 34.3125 35.4375L39.1875 40.3125C39.2572 40.3828 39.3402 40.4386 39.4315 40.4767C39.5229 40.5148 39.621 40.5344 39.72 40.5344C39.819 40.5344 39.917 40.5148 40.0084 40.4767C40.0998 40.4386 40.1828 40.3828 40.2525 40.3125C40.3294 40.2444 40.3915 40.1613 40.4349 40.0682C40.4783 39.9752 40.5022 39.8742 40.505 39.7715C40.5078 39.6689 40.4895 39.5667 40.4513 39.4714C40.413 39.3761 40.3555 39.2897 40.2825 39.2175ZM28.5 36C27.0166 36 25.5666 35.5601 24.3332 34.736C23.0998 33.9119 22.1385 32.7406 21.5709 31.3701C21.0032 29.9997 20.8547 28.4917 21.1441 27.0368C21.4335 25.582 22.1478 24.2456 23.1967 23.1967C24.2456 22.1478 25.5819 21.4335 27.0368 21.1441C28.4917 20.8547 29.9997 21.0033 31.3701 21.5709C32.7406 22.1386 33.9119 23.0999 34.736 24.3332C35.5601 25.5666 36 27.0166 36 28.5C36 29.4849 35.806 30.4602 35.4291 31.3701C35.0522 32.2801 34.4997 33.1069 33.8033 33.8033C33.1068 34.4997 32.28 35.0522 31.3701 35.4291C30.4602 35.806 29.4849 36 28.5 36Z" fill="#111111"/>
</svg>
