<svg width="60" height="60" viewBox="0 0 60 60" fill="none" xmlns="http://www.w3.org/2000/svg">
<rect x="1" y="1" width="58" height="58" stroke="#858585" stroke-opacity="0.3" stroke-width="2"/>
<g clip-path="url(#clip0_5_65)">
<path d="M34.4603 30.249C35.4143 29.1863 36 27.7867 36 26.25C36 22.9418 33.3082 20.25 30 20.25C26.6918 20.25 24 22.9418 24 26.25C24 29.5582 26.6918 32.25 30 32.25C31.1663 32.25 32.2522 31.9102 33.1747 31.332C36.4373 32.5612 38.6835 35.547 38.9692 39H21.0315C21.2257 36.6758 22.3162 34.5082 24.09 32.9618C24.4028 32.6895 24.435 32.2163 24.1628 31.9035C23.8913 31.5915 23.4173 31.5585 23.1045 31.8307C20.8133 33.8272 19.5 36.7132 19.5 39.75C19.5 40.1647 19.836 40.5 20.25 40.5H39.75C40.1647 40.5 40.5 40.1647 40.5 39.75C40.5 35.6355 38.115 31.9613 34.4603 30.249ZM25.5 26.25C25.5 23.7682 27.5182 21.75 30 21.75C32.4818 21.75 34.5 23.7682 34.5 26.25C34.5 28.7318 32.4818 30.75 30 30.75C27.5182 30.75 25.5 28.7318 25.5 26.25Z" fill="#111111"/>
</g>
<defs>
<clipPath id="clip0_5_65">
<rect width="24" height="24" fill="white" transform="translate(18 18)"/>
</clipPath>
</defs>
</svg>
